<svg width="800" height="800" viewBox="0 0 800 800" fill="none" xmlns="http://www.w3.org/2000/svg">
<path d="M373.803 0.215283C372.082 0.371663 366.608 0.918992 361.681 1.30994C248.055 11.5528 141.623 72.8537 74.2131 167.072C36.6764 219.46 12.6686 278.884 3.59726 341.827C0.391007 363.798 0 370.288 0 400.078C0 429.869 0.391007 436.358 3.59726 458.33C25.3372 608.533 132.239 734.731 277.224 781.489C303.187 789.855 330.557 795.563 361.681 799.003C373.803 800.332 426.197 800.332 438.319 799.003C492.043 793.061 537.556 779.768 582.444 756.859C589.326 753.34 590.655 752.402 589.717 751.62C589.091 751.151 559.765 711.821 524.575 664.282L460.606 577.882L380.45 459.268C336.344 394.058 300.059 340.732 299.746 340.732C299.433 340.654 299.12 393.354 298.964 457.704C298.729 570.376 298.651 574.911 297.243 577.569C295.21 581.401 293.646 582.964 290.362 584.685C287.859 585.936 285.67 586.17 273.861 586.17H260.332L256.735 583.903C254.389 582.417 252.669 580.462 251.496 578.195L249.853 574.676L250.01 417.906L250.244 261.057L252.669 258.007C253.92 256.365 256.579 254.254 258.456 253.238C261.662 251.674 262.913 251.518 276.442 251.518C292.395 251.518 295.054 252.143 299.198 256.678C300.371 257.929 343.773 323.296 395.699 402.033C447.625 480.77 518.631 588.281 553.509 641.06L616.852 736.999L620.059 734.887C648.446 716.435 678.475 690.163 702.248 662.796C752.845 604.701 785.455 533.861 796.403 458.33C799.609 436.358 800 429.869 800 400.078C800 370.288 799.609 363.798 796.403 341.827C774.663 191.624 667.761 65.4256 522.776 18.6681C497.204 10.38 469.99 4.67211 439.492 1.23175C431.984 0.449853 380.293 -0.410236 373.803 0.215283ZM537.556 242.135C541.31 244.011 544.36 247.608 545.455 251.361C546.08 253.394 546.237 296.868 546.08 394.84L545.846 535.425L521.056 497.425L496.188 459.424V357.23C496.188 291.16 496.5 254.02 496.97 252.221C498.221 247.843 500.958 244.402 504.712 242.369C507.918 240.727 509.091 240.571 521.369 240.571C532.942 240.571 534.976 240.727 537.556 242.135Z" fill="black"/>
<ellipse cx="446.5" cy="477.5" rx="310.5" ry="309.5" fill="black"/>
<path d="M617.984 500.606C611.639 502.624 604.635 502.619 598.294 500.594C591.952 498.568 586.712 494.662 583.561 489.612L520.891 416.76L511.808 406.575L439.092 489.704C436.131 494.542 431.175 498.308 425.15 500.298C419.126 502.287 412.445 502.364 406.358 500.515L500.055 394.848L412.898 299.396C419.165 297.498 426.018 297.473 432.305 299.325C438.591 301.177 443.926 304.794 447.412 309.566L512.371 383.319L577.694 309.871C580.678 305.119 585.635 301.454 591.623 299.574C597.612 297.693 604.213 297.728 610.173 299.671L576.349 337.403L530.536 387.533C529.264 388.487 528.246 389.657 527.549 390.965C526.852 392.272 526.492 393.689 526.492 395.123C526.492 396.556 526.852 397.973 527.549 399.28C528.246 400.588 529.264 401.758 530.536 402.712L617.803 500.622L617.984 500.606ZM182.053 393.534L189.682 361.85C210.645 299.198 296.095 273.132 354.878 311.917C389.301 334.654 397.893 366.843 396.204 403.124H202.289C199.146 467.914 254.768 507.035 325.886 487.047C337.415 483.558 347.734 477.72 355.92 470.056C364.105 462.392 369.901 453.141 372.789 443.131C376.549 432.961 382.743 431.22 394.115 434.152C392.22 446.557 387.003 458.439 378.857 468.905C370.711 479.371 359.848 488.147 347.085 494.575C326.002 504.268 301.814 508.11 277.977 505.552C254.14 502.993 231.877 494.164 214.369 480.328C197.058 463.949 186.595 443.26 184.578 421.417C184.578 417.829 183.124 414.469 182.143 411.247C182.055 405.349 182.013 399.449 182.016 393.55L182.053 393.534ZM202.525 389.167H377.893C376.803 342.197 341.544 308.879 294.514 308.573C242.162 307.963 204.705 340.548 202.398 388.954L202.525 389.167Z" fill="white"/>
</svg>
