<svg width="800" height="800" viewBox="0 0 800 800" fill="none" xmlns="http://www.w3.org/2000/svg">
<rect x="367" y="111.141" width="76.0514" height="297" transform="rotate(-25 367 111.141)" fill="#ECECEC"/>
<g clip-path="url(#clip0_69_63)">
<path d="M331.931 157.305C337.075 121.099 384.096 110.211 404.631 140.47L713.323 595.333C729.101 618.581 716.622 650.425 689.249 656.763L303.226 746.153C275.853 752.491 250.647 729.375 254.6 701.557L331.931 157.305Z" fill="#ECECEC"/>
<path d="M725.969 607.79L451.615 25.161C444.67 10.5532 430.276 0.928758 414.123 0.0928633C397.933 -0.99191 382.483 7.01747 374.038 20.8733L76.4711 502.831C67.2333 517.688 67.4276 536.549 76.9697 551.213L222.453 776.507C233.756 793.875 255.139 801.738 275.002 795.831L697.191 670.949C710.053 667.189 720.652 658.037 726.248 645.861C731.767 633.744 731.673 619.811 725.989 607.77L725.969 607.79ZM664.545 632.779L306.292 738.715C295.363 741.966 284.874 732.493 287.147 721.464L415.14 108.602C417.533 97.1346 433.368 95.3198 438.373 105.929L675.314 609.087C677.434 613.624 677.46 618.863 675.384 623.421C673.308 627.979 669.34 631.399 664.525 632.779H664.545Z" fill="black"/>
</g>
<defs>
<clipPath id="clip0_69_63">
<rect width="800" height="800" fill="white"/>
</clipPath>
</defs>
</svg>
